<mxfile host="app.diagrams.net" modified="2021-11-03T12:41:35.159Z" agent="5.0 (X11; Linux x86_64) AppleWebKit/537.36 (KHTML, like Gecko) Chrome/95.0.4638.54 Safari/537.36" etag="uO6LjBDO-zkjPlIIqIgf" version="15.5.8" type="github">
  <diagram id="4UxT9yWdNShp-Za1b8pm" name="Page-1">
    <mxGraphModel dx="1385" dy="671" grid="1" gridSize="10" guides="1" tooltips="1" connect="1" arrows="1" fold="1" page="1" pageScale="1" pageWidth="827" pageHeight="1169" math="0" shadow="0">
      <root>
        <mxCell id="0" />
        <mxCell id="1" parent="0" />
        <mxCell id="HvbOI0HMesnXb_MxwJK7-15" value="Client" style="swimlane;fontStyle=0;childLayout=stackLayout;horizontal=1;startSize=26;fillColor=none;horizontalStack=0;resizeParent=1;resizeParentMax=0;resizeLast=0;collapsible=1;marginBottom=0;" vertex="1" parent="1">
          <mxGeometry x="150" y="230" width="100" height="160" as="geometry" />
        </mxCell>
        <mxCell id="HvbOI0HMesnXb_MxwJK7-18" value="id&#xa;fname&#xa;lname&#xa;street_name&#xa;city&#xa;state&#xa;zip_code&#xa;passcode" style="text;strokeColor=none;fillColor=none;align=left;verticalAlign=top;spacingLeft=4;spacingRight=4;overflow=hidden;rotatable=0;points=[[0,0.5],[1,0.5]];portConstraint=eastwest;shadow=1;fontStyle=0" vertex="1" parent="HvbOI0HMesnXb_MxwJK7-15">
          <mxGeometry y="26" width="100" height="134" as="geometry" />
        </mxCell>
        <mxCell id="HvbOI0HMesnXb_MxwJK7-19" value="Builder" style="swimlane;fontStyle=0;childLayout=stackLayout;horizontal=1;startSize=30;fillColor=none;horizontalStack=0;resizeParent=1;resizeParentMax=0;resizeLast=0;collapsible=1;marginBottom=0;shadow=1;" vertex="1" parent="1">
          <mxGeometry x="680" y="340" width="110" height="160" as="geometry" />
        </mxCell>
        <mxCell id="HvbOI0HMesnXb_MxwJK7-20" value="Id" style="text;strokeColor=none;fillColor=none;align=left;verticalAlign=top;spacingLeft=4;spacingRight=4;overflow=hidden;rotatable=0;points=[[0,0.5],[1,0.5]];portConstraint=eastwest;shadow=1;" vertex="1" parent="HvbOI0HMesnXb_MxwJK7-19">
          <mxGeometry y="30" width="110" height="26" as="geometry" />
        </mxCell>
        <mxCell id="HvbOI0HMesnXb_MxwJK7-21" value="job_description" style="text;strokeColor=none;fillColor=none;align=left;verticalAlign=top;spacingLeft=4;spacingRight=4;overflow=hidden;rotatable=0;points=[[0,0.5],[1,0.5]];portConstraint=eastwest;shadow=1;" vertex="1" parent="HvbOI0HMesnXb_MxwJK7-19">
          <mxGeometry y="56" width="110" height="26" as="geometry" />
        </mxCell>
        <mxCell id="HvbOI0HMesnXb_MxwJK7-22" value="Name&#xa;&#xa;Address&#xa;&#xa;salary&#xa;&#xa;" style="text;strokeColor=none;fillColor=none;align=left;verticalAlign=top;spacingLeft=4;spacingRight=4;overflow=hidden;rotatable=0;points=[[0,0.5],[1,0.5]];portConstraint=eastwest;shadow=1;" vertex="1" parent="HvbOI0HMesnXb_MxwJK7-19">
          <mxGeometry y="82" width="110" height="78" as="geometry" />
        </mxCell>
        <mxCell id="HvbOI0HMesnXb_MxwJK7-23" value="Retailer" style="swimlane;fontStyle=0;childLayout=stackLayout;horizontal=1;startSize=30;fillColor=none;horizontalStack=0;resizeParent=1;resizeParentMax=0;resizeLast=0;collapsible=1;marginBottom=0;shadow=1;" vertex="1" parent="1">
          <mxGeometry x="550" y="620" width="110" height="144" as="geometry" />
        </mxCell>
        <mxCell id="HvbOI0HMesnXb_MxwJK7-24" value="Id" style="text;strokeColor=none;fillColor=none;align=left;verticalAlign=top;spacingLeft=4;spacingRight=4;overflow=hidden;rotatable=0;points=[[0,0.5],[1,0.5]];portConstraint=eastwest;shadow=1;" vertex="1" parent="HvbOI0HMesnXb_MxwJK7-23">
          <mxGeometry y="30" width="110" height="26" as="geometry" />
        </mxCell>
        <mxCell id="HvbOI0HMesnXb_MxwJK7-25" value="name" style="text;strokeColor=none;fillColor=none;align=left;verticalAlign=top;spacingLeft=4;spacingRight=4;overflow=hidden;rotatable=0;points=[[0,0.5],[1,0.5]];portConstraint=eastwest;shadow=1;" vertex="1" parent="HvbOI0HMesnXb_MxwJK7-23">
          <mxGeometry y="56" width="110" height="26" as="geometry" />
        </mxCell>
        <mxCell id="HvbOI0HMesnXb_MxwJK7-26" value="Address&#xa;&#xa;Retailer_material&#xa;&#xa;" style="text;strokeColor=none;fillColor=none;align=left;verticalAlign=top;spacingLeft=4;spacingRight=4;overflow=hidden;rotatable=0;points=[[0,0.5],[1,0.5]];portConstraint=eastwest;shadow=1;" vertex="1" parent="HvbOI0HMesnXb_MxwJK7-23">
          <mxGeometry y="82" width="110" height="62" as="geometry" />
        </mxCell>
        <mxCell id="HvbOI0HMesnXb_MxwJK7-27" value="Login" style="swimlane;fontStyle=0;childLayout=stackLayout;horizontal=1;startSize=26;fillColor=none;horizontalStack=0;resizeParent=1;resizeParentMax=0;resizeLast=0;collapsible=1;marginBottom=0;shadow=1;" vertex="1" parent="1">
          <mxGeometry x="359" y="20" width="100" height="90" as="geometry" />
        </mxCell>
        <mxCell id="HvbOI0HMesnXb_MxwJK7-28" value="user_name&#xa;&#xa;password" style="text;strokeColor=none;fillColor=none;align=left;verticalAlign=top;spacingLeft=4;spacingRight=4;overflow=hidden;rotatable=0;points=[[0,0.5],[1,0.5]];portConstraint=eastwest;shadow=1;" vertex="1" parent="HvbOI0HMesnXb_MxwJK7-27">
          <mxGeometry y="26" width="100" height="64" as="geometry" />
        </mxCell>
        <mxCell id="HvbOI0HMesnXb_MxwJK7-32" value="Manager" style="swimlane;fontStyle=0;childLayout=stackLayout;horizontal=1;startSize=26;fillColor=none;horizontalStack=0;resizeParent=1;resizeParentMax=0;resizeLast=0;collapsible=1;marginBottom=0;shadow=1;" vertex="1" parent="1">
          <mxGeometry x="590" y="176" width="100" height="104" as="geometry" />
        </mxCell>
        <mxCell id="HvbOI0HMesnXb_MxwJK7-34" value="manager_id" style="text;strokeColor=none;fillColor=none;align=left;verticalAlign=top;spacingLeft=4;spacingRight=4;overflow=hidden;rotatable=0;points=[[0,0.5],[1,0.5]];portConstraint=eastwest;shadow=1;" vertex="1" parent="HvbOI0HMesnXb_MxwJK7-32">
          <mxGeometry y="26" width="100" height="26" as="geometry" />
        </mxCell>
        <mxCell id="HvbOI0HMesnXb_MxwJK7-33" value="Builder_id" style="text;strokeColor=none;fillColor=none;align=left;verticalAlign=top;spacingLeft=4;spacingRight=4;overflow=hidden;rotatable=0;points=[[0,0.5],[1,0.5]];portConstraint=eastwest;shadow=1;" vertex="1" parent="HvbOI0HMesnXb_MxwJK7-32">
          <mxGeometry y="52" width="100" height="26" as="geometry" />
        </mxCell>
        <mxCell id="HvbOI0HMesnXb_MxwJK7-35" value="+ field: type" style="text;strokeColor=none;fillColor=none;align=left;verticalAlign=top;spacingLeft=4;spacingRight=4;overflow=hidden;rotatable=0;points=[[0,0.5],[1,0.5]];portConstraint=eastwest;shadow=1;" vertex="1" parent="HvbOI0HMesnXb_MxwJK7-32">
          <mxGeometry y="78" width="100" height="26" as="geometry" />
        </mxCell>
        <mxCell id="HvbOI0HMesnXb_MxwJK7-37" value="Client_Emails" style="rhombus;whiteSpace=wrap;html=1;shadow=1;" vertex="1" parent="1">
          <mxGeometry x="15" y="280" width="90" height="60" as="geometry" />
        </mxCell>
        <mxCell id="HvbOI0HMesnXb_MxwJK7-38" value="Client_phn" style="rhombus;whiteSpace=wrap;html=1;shadow=1;" vertex="1" parent="1">
          <mxGeometry x="30" y="650" width="80" height="60" as="geometry" />
        </mxCell>
        <mxCell id="HvbOI0HMesnXb_MxwJK7-39" value="Groups" style="rhombus;whiteSpace=wrap;html=1;shadow=1;" vertex="1" parent="1">
          <mxGeometry x="40" y="440" width="60" height="50" as="geometry" />
        </mxCell>
        <mxCell id="HvbOI0HMesnXb_MxwJK7-40" value="Retailer_material" style="rhombus;whiteSpace=wrap;html=1;shadow=1;" vertex="1" parent="1">
          <mxGeometry x="40" y="730" width="110" height="70" as="geometry" />
        </mxCell>
        <mxCell id="HvbOI0HMesnXb_MxwJK7-41" value="Group_number" style="rhombus;whiteSpace=wrap;html=1;shadow=1;" vertex="1" parent="1">
          <mxGeometry x="150" y="770" width="100" height="60" as="geometry" />
        </mxCell>
        <mxCell id="HvbOI0HMesnXb_MxwJK7-42" value="Project_no," style="rhombus;whiteSpace=wrap;html=1;shadow=1;" vertex="1" parent="1">
          <mxGeometry x="230" y="110" width="80" height="80" as="geometry" />
        </mxCell>
        <mxCell id="HvbOI0HMesnXb_MxwJK7-43" value="Site_id" style="rhombus;whiteSpace=wrap;html=1;shadow=1;" vertex="1" parent="1">
          <mxGeometry x="690" y="220" width="60" height="60" as="geometry" />
        </mxCell>
        <mxCell id="HvbOI0HMesnXb_MxwJK7-44" value="Supplies" style="rhombus;whiteSpace=wrap;html=1;shadow=1;rotation=0;" vertex="1" parent="1">
          <mxGeometry x="175" y="420" width="60" height="60" as="geometry" />
        </mxCell>
        <mxCell id="HvbOI0HMesnXb_MxwJK7-45" value="Work_in" style="rhombus;whiteSpace=wrap;html=1;shadow=1;" vertex="1" parent="1">
          <mxGeometry x="439" y="810" width="60" height="60" as="geometry" />
        </mxCell>
        <mxCell id="HvbOI0HMesnXb_MxwJK7-47" value="Work_on" style="rounded=0;whiteSpace=wrap;html=1;shadow=1;" vertex="1" parent="1">
          <mxGeometry x="290" y="800" width="70" height="30" as="geometry" />
        </mxCell>
        <mxCell id="HvbOI0HMesnXb_MxwJK7-48" value="Subcontracts" style="rounded=0;whiteSpace=wrap;html=1;shadow=1;" vertex="1" parent="1">
          <mxGeometry x="720" y="110" width="90" height="30" as="geometry" />
        </mxCell>
        <mxCell id="HvbOI0HMesnXb_MxwJK7-54" value="Raw_materials" style="swimlane;fontStyle=0;childLayout=stackLayout;horizontal=1;startSize=26;fillColor=none;horizontalStack=0;resizeParent=1;resizeParentMax=0;resizeLast=0;collapsible=1;marginBottom=0;shadow=1;" vertex="1" parent="1">
          <mxGeometry x="344" y="670" width="140" height="140" as="geometry" />
        </mxCell>
        <mxCell id="HvbOI0HMesnXb_MxwJK7-55" value="site_id" style="text;strokeColor=none;fillColor=none;align=left;verticalAlign=top;spacingLeft=4;spacingRight=4;overflow=hidden;rotatable=0;points=[[0,0.5],[1,0.5]];portConstraint=eastwest;shadow=1;" vertex="1" parent="HvbOI0HMesnXb_MxwJK7-54">
          <mxGeometry y="26" width="140" height="26" as="geometry" />
        </mxCell>
        <mxCell id="HvbOI0HMesnXb_MxwJK7-56" value="material_name" style="text;strokeColor=none;fillColor=none;align=left;verticalAlign=top;spacingLeft=4;spacingRight=4;overflow=hidden;rotatable=0;points=[[0,0.5],[1,0.5]];portConstraint=eastwest;shadow=1;" vertex="1" parent="HvbOI0HMesnXb_MxwJK7-54">
          <mxGeometry y="52" width="140" height="26" as="geometry" />
        </mxCell>
        <mxCell id="HvbOI0HMesnXb_MxwJK7-57" value="material_model&#xa;&#xa;reorder_level" style="text;strokeColor=none;fillColor=none;align=left;verticalAlign=top;spacingLeft=4;spacingRight=4;overflow=hidden;rotatable=0;points=[[0,0.5],[1,0.5]];portConstraint=eastwest;shadow=1;" vertex="1" parent="HvbOI0HMesnXb_MxwJK7-54">
          <mxGeometry y="78" width="140" height="62" as="geometry" />
        </mxCell>
        <mxCell id="HvbOI0HMesnXb_MxwJK7-60" value="" style="endArrow=classic;html=1;rounded=0;entryX=-0.01;entryY=0.266;entryDx=0;entryDy=0;entryPerimeter=0;" edge="1" parent="1" target="HvbOI0HMesnXb_MxwJK7-28">
          <mxGeometry width="50" height="50" relative="1" as="geometry">
            <mxPoint x="290" y="130" as="sourcePoint" />
            <mxPoint x="480" y="270" as="targetPoint" />
          </mxGeometry>
        </mxCell>
        <mxCell id="HvbOI0HMesnXb_MxwJK7-64" value="" style="endArrow=none;html=1;rounded=0;exitX=0.455;exitY=0;exitDx=0;exitDy=0;entryX=0.223;entryY=0.731;entryDx=0;entryDy=0;entryPerimeter=0;exitPerimeter=0;" edge="1" parent="1" source="HvbOI0HMesnXb_MxwJK7-15" target="HvbOI0HMesnXb_MxwJK7-42">
          <mxGeometry width="50" height="50" relative="1" as="geometry">
            <mxPoint x="440" y="410" as="sourcePoint" />
            <mxPoint x="490" y="360" as="targetPoint" />
          </mxGeometry>
        </mxCell>
        <mxCell id="HvbOI0HMesnXb_MxwJK7-65" value="" style="endArrow=none;html=1;rounded=0;entryX=0.208;entryY=0.706;entryDx=0;entryDy=0;entryPerimeter=0;exitX=0.427;exitY=-0.004;exitDx=0;exitDy=0;exitPerimeter=0;" edge="1" parent="1" source="HvbOI0HMesnXb_MxwJK7-15" target="HvbOI0HMesnXb_MxwJK7-42">
          <mxGeometry width="50" height="50" relative="1" as="geometry">
            <mxPoint x="190" y="230" as="sourcePoint" />
            <mxPoint x="230" y="160" as="targetPoint" />
          </mxGeometry>
        </mxCell>
        <mxCell id="HvbOI0HMesnXb_MxwJK7-66" value="Projects" style="swimlane;fontStyle=0;childLayout=stackLayout;horizontal=1;startSize=26;fillColor=none;horizontalStack=0;resizeParent=1;resizeParentMax=0;resizeLast=0;collapsible=1;marginBottom=0;shadow=1;" vertex="1" parent="1">
          <mxGeometry x="150" y="520" width="110" height="170" as="geometry" />
        </mxCell>
        <mxCell id="HvbOI0HMesnXb_MxwJK7-67" value="number" style="text;strokeColor=none;fillColor=none;align=left;verticalAlign=top;spacingLeft=4;spacingRight=4;overflow=hidden;rotatable=0;points=[[0,0.5],[1,0.5]];portConstraint=eastwest;shadow=1;" vertex="1" parent="HvbOI0HMesnXb_MxwJK7-66">
          <mxGeometry y="26" width="110" height="26" as="geometry" />
        </mxCell>
        <mxCell id="HvbOI0HMesnXb_MxwJK7-68" value="start_date&#xa;&#xa;end_date&#xa;&#xa;group_number&#xa;&#xa;completion_status" style="text;strokeColor=none;fillColor=none;align=left;verticalAlign=top;spacingLeft=4;spacingRight=4;overflow=hidden;rotatable=0;points=[[0,0.5],[1,0.5]];portConstraint=eastwest;shadow=1;" vertex="1" parent="HvbOI0HMesnXb_MxwJK7-66">
          <mxGeometry y="52" width="110" height="118" as="geometry" />
        </mxCell>
        <mxCell id="HvbOI0HMesnXb_MxwJK7-70" value="" style="endArrow=classic;html=1;rounded=0;exitX=0.5;exitY=0;exitDx=0;exitDy=0;entryX=-0.014;entryY=0.13;entryDx=0;entryDy=0;entryPerimeter=0;" edge="1" parent="1" source="HvbOI0HMesnXb_MxwJK7-37" target="HvbOI0HMesnXb_MxwJK7-15">
          <mxGeometry width="50" height="50" relative="1" as="geometry">
            <mxPoint x="240" y="450" as="sourcePoint" />
            <mxPoint x="290" y="400" as="targetPoint" />
            <Array as="points">
              <mxPoint x="60" y="250" />
            </Array>
          </mxGeometry>
        </mxCell>
        <mxCell id="HvbOI0HMesnXb_MxwJK7-72" value="" style="endArrow=none;html=1;rounded=0;exitX=0.5;exitY=0;exitDx=0;exitDy=0;entryX=0.5;entryY=1;entryDx=0;entryDy=0;" edge="1" parent="1" source="HvbOI0HMesnXb_MxwJK7-66" target="HvbOI0HMesnXb_MxwJK7-44">
          <mxGeometry width="50" height="50" relative="1" as="geometry">
            <mxPoint x="490" y="490" as="sourcePoint" />
            <mxPoint x="540" y="440" as="targetPoint" />
          </mxGeometry>
        </mxCell>
        <mxCell id="HvbOI0HMesnXb_MxwJK7-73" value="" style="endArrow=none;html=1;rounded=0;entryX=0.459;entryY=0.984;entryDx=0;entryDy=0;entryPerimeter=0;" edge="1" parent="1" target="HvbOI0HMesnXb_MxwJK7-44">
          <mxGeometry width="50" height="50" relative="1" as="geometry">
            <mxPoint x="203" y="520" as="sourcePoint" />
            <mxPoint x="203" y="480" as="targetPoint" />
          </mxGeometry>
        </mxCell>
        <mxCell id="HvbOI0HMesnXb_MxwJK7-78" value="" style="endArrow=classic;html=1;rounded=0;exitX=0.5;exitY=0;exitDx=0;exitDy=0;entryX=0.546;entryY=1.003;entryDx=0;entryDy=0;entryPerimeter=0;" edge="1" parent="1" source="HvbOI0HMesnXb_MxwJK7-44" target="HvbOI0HMesnXb_MxwJK7-18">
          <mxGeometry width="50" height="50" relative="1" as="geometry">
            <mxPoint x="350" y="520" as="sourcePoint" />
            <mxPoint x="400" y="470" as="targetPoint" />
          </mxGeometry>
        </mxCell>
      </root>
    </mxGraphModel>
  </diagram>
</mxfile>
